<svg xmlns="http://www.w3.org/2000/svg" viewBox="0 0 400 112.766"><path fill-rule="evenodd" d="M44.255 11.736c-5.96 2.559-2.413 9.966 4.773 9.966.962 0 2.461 1.65 2.461 2.708 0 3.263-5.036 3.829-9.034 1.016-1.523-1.071-2.435.725-.965 1.9 4.915 3.926 12.127 2.13 12.127-3.021 0-3.047-1.086-3.987-6.122-5.303-4.062-1.06-5.292-3.102-2.97-4.929 1.436-1.128 3.54-1.126 5.759.006 1.542.786 1.813.815 2.374.254 2.014-2.014-4.832-4.129-8.403-2.597m16.805-.04c-5.569 2.449-3.997 7.776 2.824 9.566 3.444.905 4.519 1.702 4.434 3.288-.147 2.757-4.23 3.615-7.775 1.633-1.745-.975-2.049-1.03-2.605-.473-1.346 1.346 2.605 3.652 6.256 3.652 7.819 0 8.959-7.897 1.441-9.981-4.425-1.226-5.209-1.732-5.209-3.365 0-2.685 3.164-3.634 6.589-1.976 1.908.923 1.986.928 2.548.159 1.528-2.09-5.042-4.024-8.503-2.503m18.625.074c-4.355 1.541-6.659 6.943-4.986 11.686 3.384 9.592 17.679 6.888 17.632-3.336-.03-6.511-6.247-10.616-12.646-8.35m132.747-.178c-.26.313-1.131 2.094-1.936 3.957a306.366 306.366 0 0 1-2.951 6.579c-3.191 6.845-3.327 7.359-1.907 7.157.679-.096 1.268-.787 2.022-2.369l1.063-2.232 4.714-.002 4.714-.001 1.031 2.234c.835 1.809 1.254 2.26 2.201 2.369 1.549.178 1.695.655-2.841-9.284-4.039-8.85-4.835-9.945-6.11-8.408m139.294.343c-8.786 4.383-5.938 17.427 3.806 17.427 9.954 0 12.711-13.8 3.524-17.637-2.147-.897-5.291-.807-7.33.21M11.064 20.427v8.994l.957-.136c.937-.133.962-.283 1.17-6.915l.213-6.778 2.929 4.332c3.525 5.214 2.874 5.198 6.22.152l2.766-4.171.213 6.622.213 6.622 1.17.135 1.17.134V11.489h-1.201c-1.059 0-1.568.559-4.316 4.745l-3.115 4.746-.63-1.203c-.346-.661-.806-1.408-1.022-1.66-.215-.251-1.303-1.798-2.417-3.436-1.552-2.283-2.293-3.01-3.173-3.114l-1.147-.134v8.994m22.553-.001v8.936h2.553V11.489h-2.553v8.937m63.474-2.022c.193 9.344 1.522 11.228 7.672 10.881 5.441-.308 7.128-3.129 7.143-11.945l.009-5.851H109.422l-.137 6.632-.136 6.632-1.39 1.24c-2.126 1.898-5.054 1.79-7.107-.263l-1.503-1.503V11.489h-2.201l.143 6.915m20.028 1.915.115 8.83h1.064c1.032 0 1.067-.097 1.188-3.298l.124-3.298 2.429.011 2.429.011 2.453 3.394c2.122 2.935 2.625 3.393 3.724 3.393 1.669 0 1.682.036-1.344-3.875-1.438-1.859-2.539-3.438-2.447-3.509.092-.071.797-.38 1.567-.687 1.941-.773 2.643-1.964 2.643-4.482 0-4.237-1.861-5.32-9.144-5.32h-4.916l.115 8.83m19.051.107v8.936h2.128V11.489h-2.128v8.937m16.268-.107.115 8.83 2.979.139c8.154.38 12.931-3.349 12.469-9.736-.401-5.548-3.914-8.051-11.308-8.058l-4.37-.005.115 8.83m20.328.118v8.947l6.489-.118c6.365-.115 6.492-.135 6.626-1.075.135-.951.098-.957-5.426-.957h-5.561V21.277h4.923c4.862 0 4.921-.012 4.787-.958-.131-.92-.325-.962-4.923-1.078l-4.787-.12v-5.504h10.638v-2.128h-12.766v8.948m17.447.018v8.966l.957-.136c.877-.125.968-.392 1.082-3.169l.124-3.032 3.493-.191c5.448-.297 7.665-2.051 7.61-6.023-.053-3.812-2.646-5.379-8.905-5.38l-4.361-.001v8.966m36.17-.001v8.964l1.17-.134c1.153-.133 1.172-.185 1.295-3.454l.125-3.318 2.408.127 2.408.127 2.517 3.298c2.113 2.768 2.714 3.298 3.744 3.298 1.587 0 1.639.148-1.327-3.796-2.76-3.67-2.857-3.864-1.947-3.864 2.636 0 4.644-4.451 3.245-7.194-1.294-2.535-2.694-3.019-8.731-3.019h-4.907v8.965m17.183-8.347c-.439 1.144.3 1.51 3.045 1.51h2.732l.115 7.766.116 7.766 1.171.135 1.17.134V13.617h2.979c2.893 0 2.978-.03 2.978-1.064v-1.064h-7.034c-5.758 0-7.078.113-7.272.618m18.136 8.348v8.966l.958-.136c.936-.133.962-.283 1.17-6.901l.213-6.764 2.937 4.318c3.539 5.2 2.872 5.19 6.211.092 1.522-2.322 2.91-4.236 3.086-4.253.175-.018.319 3.032.319 6.776v6.809h2.127V11.489l-1.17.008c-1.013.006-1.563.606-4.099 4.468-3.547 5.401-2.973 5.401-6.483-.008-2.537-3.91-3.047-4.468-4.084-4.468h-1.185v8.966m22.651-.136.115 8.83 6.489.117 6.49.118v-2.15h-10.638V21.277h9.361v-2.128h-9.361v-5.532h10.638v-2.128h-13.209l.115 8.83m17.447-.029c.114 8.794.122 8.86 1.062 8.994.942.133.948.099 1.064-6.906l.117-7.041 1.914 2.371c3.243 4.013 4.383 5.454 6.809 8.611 3.833 4.987 4.018 4.72 4.158-6l.115-8.83h-2.549l-.117 6.609-.118 6.609-2.34-3.038c-6.283-8.154-7.91-9.966-9.074-10.102l-1.156-.136.115 8.859m19.051-7.737c0 1.034.085 1.064 2.979 1.064h2.979v15.804l.957-.136c.948-.135.959-.213 1.073-7.883l.116-7.747 2.863-.125c2.6-.114 2.875-.214 2.999-1.083l.136-.958h-14.102v1.064m48.608 7.766c.115 8.793.119 8.83 1.073 8.966.932.132.957.035.957-3.71V21.73l4.788-.12c4.598-.116 4.792-.158 4.923-1.078.134-.946.075-.958-4.787-.958h-4.924V13.617h10.639v-2.128h-12.784l.115 8.83M86.221 14.067c6.26 3.031 3.933 13.378-2.985 13.274-6.79-.103-9.228-10.235-3.182-13.228 2.326-1.151 3.86-1.163 6.167-.046m272.371-.047c5.929 2.692 4.603 11.249-2.071 13.363-1.157.366-3.875-.568-5.19-1.784-5.979-5.529-.091-14.917 7.261-11.579m-231 .278c3.668 2.569 1.31 5.731-4.507 6.045l-3.511.189v-6.915h3.523c2.541 0 3.793.19 4.495.681m35.492.697c5.81 4.433 1.745 12.228-6.382 12.237l-2.234.002V13.53l3.544.15c3.08.13 3.745.303 5.072 1.315m35.98-.918c4.738 1.652 1.762 6.774-3.936 6.774h-2.788v-7.234h2.703c1.486 0 3.296.207 4.021.46m37.525.087c4.189 2.12.966 6.262-4.873 6.262h-2.78V13.617l3.298.006c1.814.004 3.773.247 4.355.541m-21.266 3.981c2.17 4.697 2.299 4.408-1.964 4.408-2.761 0-3.61-.131-3.448-.532.774-1.913 3.43-7.553 3.558-7.553.085 0 .92 1.655 1.854 3.677m172.124 19.47c-.825 1.129-2.179 2.198-3.83 3.023l-2.553 1.277-20.638.099c-21.771.104-22.918.199-25.446 2.107-1.337 1.01-9.392 16.502-8.858 17.036.106.106.418-.23.694-.745 3.917-7.32 3.534-7.221 27.796-7.221 26.848 0 25.587.436 31.199-10.769 3.384-6.759 3.666-7.585 1.636-4.807M64.255 44.472v5.323L85 49.685l20.745-.111.119-5.212.12-5.213H64.255v5.323m105.2-.11.119 5.212h41.277l.12-5.212.119-5.213h-41.754l.119 5.213M11.064 69.539v30.035h9.362V77.447h13.887l3.588 4.755c1.974 2.615 4.163 5.557 4.865 6.536.702.979 2.808 3.814 4.681 6.3l3.404 4.519 5.851.009c3.218.005 5.851-.089 5.851-.208 0-.26-15.508-20.891-16.65-22.151-1.083-1.195-1.051-1.253 1.012-1.861 14.941-4.403 17.092-25.406 3.352-32.729-5.13-2.735-5.116-2.733-22.927-2.931l-16.276-.182v30.035m97.031-28.876c.227.599.893 2.137 1.478 3.417.586 1.281 1.065 2.426 1.065 2.546 0 .12.554 1.407 1.231 2.86.676 1.453 2.125 4.818 3.218 7.478 1.094 2.66 2.551 6.064 3.238 7.564.687 1.5 1.249 2.813 1.249 2.917 0 .104.459 1.2 1.019 2.436.56 1.236 1.825 4.162 2.812 6.502.987 2.34 2.133 5.021 2.546 5.957a767.45 767.45 0 0 1 2.745 6.383c1.095 2.575 2.681 6.261 3.524 8.192l1.532 3.511h3.988c3.418 0 4.026-.107 4.245-.745.279-.811 7.09-16.967 8.028-19.043 1.058-2.34 11.345-26.344 12.402-28.936a139.213 139.213 0 0 1 1.876-4.38 93.785 93.785 0 0 0 1.549-3.617c.392-.984.959-2.269 1.261-2.854l.548-1.064-4.97-.12c-5.919-.144-5.724-.201-6.453 1.875a48.87 48.87 0 0 1-1.144 2.926c-.31.702-1.033 2.426-1.606 3.83-.573 1.404-2.04 4.947-3.259 7.872-1.22 2.926-3.078 7.426-4.128 10-1.05 2.575-2.259 5.447-2.685 6.383-.426.936-1.737 4.043-2.913 6.903-1.176 2.861-2.306 5.501-2.511 5.868-.366.654-1.083-.847-4.678-9.792a131.266 131.266 0 0 0-1.845-4.357c-.45-.992-.819-1.912-.819-2.045 0-.132-.409-1.14-.91-2.238-.501-1.099-1.728-4.009-2.727-6.466-2.644-6.504-6.78-16.494-7.795-18.83l-.878-2.022h-10.647l.414 1.089m107.65 28.911v30h9.361l.013-21.808.012-21.809 1.158 1.321c.637.726 2.69 3.279 4.562 5.673 3.661 4.679 6.828 8.706 8.725 11.092.652.819 2.771 3.5 4.71 5.957 5.767 7.31 8.518 10.784 9.483 11.976.502.619 2.052 2.582 3.445 4.362l2.534 3.236h7.912v-60h-9.362l-.059 19.681c-.033 10.825-.026 20.304.014 21.064.116 2.194-.371 1.763-5.738-5.074-2.787-3.551-5.738-7.256-6.558-8.234-.819-.977-2.542-3.167-3.829-4.865-1.288-1.699-3.011-3.906-3.83-4.904-.819-.999-3.021-3.777-4.894-6.174-1.872-2.397-4.219-5.331-5.216-6.521-.996-1.19-2.241-2.794-2.766-3.565l-.954-1.402-4.362-.003-4.361-.003v30m57.021-11.11c0 21.684.211 23.748 3.003 29.408 8.888 18.02 38.274 17.345 45.748-1.051 2.147-5.284 2.312-7.276 2.312-27.991l.001-19.256h-9.301l-.172 19.469c-.182 20.636-.251 21.382-2.341 25.425-4.706 9.103-20.899 9.767-26.471 1.085-2.746-4.28-2.992-6.523-2.992-27.323V39.574H272.766v18.89M42.91 49.559c6.69 2.178 8.929 9.516 4.569 14.979-2.727 3.417-7.61 4.517-19.181 4.317l-7.66-.132-.114-10.145-.114-10.146 10.114.194c8.055.154 10.577.344 12.386.933m343.759 11.553c-3.571 3.961-3.793 3.993-27.884 4.004-25.825.012-23.147-.976-29.162 10.756-4.614 8.998-4.563 10.088.162 3.436 2.255-3.175 1.943-3.137 25.649-3.147 24.075-.011 22.762.187 26.607-4.019 1.237-1.354 2.154-2.557 2.037-2.674-.117-.117.957-2.489 2.388-5.272 2.997-5.831 3.022-6.212.203-3.084M64.255 70.426v5.327L85 75.642l20.745-.11V65.319L85 65.209l-20.745-.111v5.328m105.107 0v5.319h41.702V65.106h-41.702v5.32m218.157 12.545c-2.398 4.059-3.7 4.263-27.198 4.263-26.844 0-24.584-.856-30.812 11.669-3.581 7.204-3.484 8.211.262 2.708 2.151-3.16 1.489-3.075 25.761-3.313 19.265-.189 21.845-.293 22.979-.927 2.854-1.595 4.037-3.149 7.031-9.23 2.777-5.64 3.735-8.147 1.977-5.17M64.255 94.894V100h41.702V89.787H64.255v5.107m105.107 0V100h41.702V89.787h-41.702v5.107"/></svg>