<svg xmlns="http://www.w3.org/2000/svg" viewBox="0 0 463.059 397.497"><g fill-rule="evenodd"><path fill="#696a6d" d="M251.066 15.25c-43.607 2.35-187.732 3.095-212.239 1.096l-6.132-.5.428 3.8a20.66 20.66 0 0 0 3.023 7.848c2.076 3.236 2.593 4.925 2.593 8.472 0 4.372.069 4.494 5.337 9.465 5.237 4.942 7.086 8.432 7.1 13.405 0 .971 2.1 3.941 4.774 6.753 2.624 2.761 6.148 6.594 7.835 8.518 3.315 3.785 2.808 3.7 12.35 2.029 8.128-1.425 10.157 9.507 2.914 15.695-10.063 8.6-12.368 16.141-6.18 20.229 6.855 4.528 8.684 6.852 9.26 11.757.9 7.679 7.273 13.527 15.91 14.6l4.152.517-.2 7.6c-.26 9.789-2.182 60.3-4.768 125.382-1.123 28.283-2.3 59.762-2.609 69.951l-.566 18.527 33.932-.505c18.662-.279 71.442-.867 117.288-1.306s97.781-1.028 115.41-1.305l32.053-.507.568 3.364c.379 2.238 1.089 3.529 2.124 3.857 2.473.785 5.775 5.282 5.775 7.866 0 3.866-.774 4.829-5.01 6.236-3.7 1.229-9.09 5.871-9.09 7.829 0 .4-1.68 2.7-3.733 5.106-5.538 6.488-5.458 6.563 6.843 6.436 23.893-.248 36.282-1.058 36.368-2.379l.207-3.1c.07-1.023 1.246-2.858 2.615-4.077 3.357-2.991 3.15-4.823-.829-7.335-4.165-2.629-4.222-3.853-.167-3.613 4.7.278 5.418-.49 4.8-5.126-.474-3.571-.318-4.13 1.565-5.612 2.589-2.037 2.753-5.573.457-9.855-1.086-2.028-1.367-3.374-.836-4.014.439-.529.553-1.207.253-1.508s-.11-.545.421-.545.924-.28.87-.622c-.253-1.6.171-2.75.857-2.325.417.258.926 0 1.131-.573 1.159-3.248 1.456.9.317 4.424-1.583 4.9-1.314 5.73 1.862 5.73 3.347 0 7.544-5.666 7.544-10.187 0-2.219 1.427-2.384 5.159-.6 2.85 1.362 4.794.029 4.794-3.285a8.288 8.288 0 0 1 1.917-4.488c4.758-5.538 4.723-19.433-.069-27.886-5.84-10.3-11.205-11.774-11.336-3.113-.028 1.864-.476 3.531-.995 3.7-1.144.381-6.414-8.836-7.688-13.448a12.707 12.707 0 0 0-6.091-8.159c-3.129-1.944-2.925-4.577.623-8.014 3.991-3.869 3.89-6.623-.415-11.293-3.813-4.137-3.907-4.506-1.659-6.539 6.324-5.723-7.8-19.4-32.347-31.3-12.634-6.13-19.17-11.348-24.827-19.818-6.327-9.475-4.778-13.41 13.781-35 9.669-11.249 9.684-11.353 2.13-14.743a43.505 43.505 0 0 1-9.12-5.718c-7.282-6.41-15.6-6.59-18.853-.409-2.121 4.03-5.135 4.274-8.847.717-2.966-2.842-3-2.973-3.983-14.213-1.305-14.981-2.189-16.413-18.294-29.592-28.413-23.252-40.1-45.948-34.4-66.81 2.478-9.066 2.551-8.849-7.074-21.123l-8.705-11.109-9.538.071c-5.246.039-14.577.342-20.735.674"/><path fill="#fff" stroke="#696a6d" stroke-width="3" d="M220.066 2.25C176.459 4.6 32.334 5.345 7.827 3.346l-6.132-.5.428 3.8a20.66 20.66 0 0 0 3.023 7.848c2.076 3.236 2.593 4.925 2.593 8.472 0 4.372.069 4.494 5.337 9.465 5.237 4.942 7.086 8.432 7.1 13.405 0 .971 2.1 3.941 4.774 6.753 2.624 2.761 6.148 6.594 7.835 8.518 3.315 3.785 2.808 3.7 12.35 2.029 8.128-1.425 10.157 9.507 2.914 15.695-10.063 8.6-12.368 16.141-6.18 20.229 6.855 4.528 8.684 6.852 9.26 11.757.9 7.679 7.273 13.527 15.91 14.6l4.152.517-.2 7.6c-.26 9.789-2.182 60.3-4.768 125.382-1.123 28.283-2.3 59.762-2.609 69.951l-.566 18.527 33.932-.505c18.662-.279 71.442-.867 117.288-1.306s97.781-1.028 115.41-1.305l32.053-.507.568 3.364c.379 2.238 1.089 3.529 2.124 3.857 2.473.785 5.775 5.282 5.775 7.866 0 3.866-.774 4.829-5.01 6.236-3.7 1.229-9.09 5.871-9.09 7.829 0 .4-1.68 2.7-3.733 5.106-5.538 6.488-5.458 6.563 6.843 6.436 23.893-.248 36.282-1.058 36.368-2.379l.207-3.1c.07-1.023 1.246-2.858 2.615-4.077 3.357-2.991 3.15-4.823-.829-7.335-4.165-2.629-4.222-3.853-.167-3.613 4.7.278 5.418-.49 4.8-5.126-.474-3.571-.318-4.13 1.565-5.612 2.589-2.037 2.753-5.573.457-9.855-1.086-2.028-1.367-3.374-.836-4.014.439-.529.553-1.207.253-1.508s-.11-.545.421-.545.924-.28.87-.622c-.253-1.6.171-2.75.857-2.325.417.258.926 0 1.131-.573 1.159-3.248 1.456.9.317 4.424-1.583 4.9-1.314 5.73 1.862 5.73 3.347 0 7.544-5.666 7.544-10.187 0-2.219 1.427-2.384 5.159-.6 2.85 1.362 4.794.029 4.794-3.285a8.288 8.288 0 0 1 1.917-4.488c4.758-5.538 4.723-19.433-.069-27.886-5.84-10.3-11.205-11.774-11.336-3.113-.028 1.864-.476 3.531-.995 3.7-1.144.381-6.414-8.836-7.688-13.448a12.707 12.707 0 0 0-6.091-8.159c-3.129-1.944-2.925-4.577.623-8.014 3.991-3.869 3.89-6.623-.415-11.293-3.813-4.137-3.907-4.506-1.659-6.539 6.324-5.723-7.8-19.4-32.347-31.3-12.634-6.13-19.17-11.348-24.827-19.818-6.327-9.475-4.778-13.41 13.781-35 9.669-11.249 9.684-11.353 2.13-14.743a43.505 43.505 0 0 1-9.12-5.718c-7.282-6.41-15.6-6.59-18.853-.409-2.121 4.03-5.135 4.274-8.847.717-2.966-2.842-3-2.973-3.983-14.213-1.305-14.981-2.189-16.413-18.294-29.592-28.413-23.252-40.1-45.948-34.4-66.81 2.478-9.066 2.551-8.849-7.074-21.123l-8.705-11.109-9.538.071c-5.246.039-14.577.342-20.735.674"/></g><text font-family="ArialMT, Arial" font-size="50" transform="translate(138.726 178.505)"><tspan x="0" y="0">Form</tspan></text><text font-family="Arial-BoldMT, Arial" font-size="65" font-weight="700" transform="translate(94.726 275.505)"><tspan x="0" y="0">MO W-4</tspan></text></svg>