<svg xmlns="http://www.w3.org/2000/svg" viewBox="0 0 380.2 79.5"><path fill="#939597" d="M53.8 78 16.6 29.3V78H0V1.4h15.6l35.9 47.2V1.4h16.7V78ZM114.4 79.3c-22.5 0-39.3-17.4-39.3-39.4v-.2c0-21.8 16.4-39.7 40-39.7 14.5 0 23.1 4.8 30.2 11.9l-10.7 12.4c-5.9-5.3-11.9-8.7-19.6-8.7-12.9 0-22.2 10.7-22.2 23.9v.2c0 13.2 9.1 24.1 22.2 24.1 8.8 0 14.1-3.5 20.1-9l10.7 10.8c-7.9 8.4-16.6 13.7-31.4 13.7Z"/><path d="M181.1 78h-29.9V1.4h29.9c24.1 0 40.7 16.5 40.7 38.1v.2c.1 21.5-16.6 38.3-40.7 38.3Zm23.1-38.4c0-13.6-9.3-23.1-23.1-23.1h-13v46.2h13c13.8 0 23.1-9.3 23.1-22.9ZM360.5 78l-16.4-24.6h-13.2V78H314V1.4h35c18 0 28.9 9.5 28.9 25.3v.2c0 12.4-6.7 20.1-16.4 23.8L380.2 78h-19.7Zm.3-50.5c0-7.2-5-10.9-13.2-10.9h-16.7v22h17c8.2 0 12.9-4.4 12.9-10.8v-.3Z"/><path d="M306.9 39.8A39.7 39.7 0 1 1 267.2.1a39.669 39.669 0 0 1 39.7 39.7"/><path fill="#fff" d="M291.1 39.1A24.1 24.1 0 1 1 267 15a24.113 24.113 0 0 1 24.1 24.1"/><path fill="#939597" d="M286.6 39.1A19.6 19.6 0 1 1 267 19.5a19.632 19.632 0 0 1 19.6 19.6"/></svg>