<svg xmlns="http://www.w3.org/2000/svg" viewBox="0 0 353.885 247.864"><path d="M.208 164.444a47.294 47.294 0 0 1 9.375-23.713 52.651 52.651 0 0 1 10.861-10.73c11.111-8.2 25.434-12.481 40.318-12.03a.781.781 0 0 1 .109.006l3.316.191a69.1 69.1 0 0 1 23.631 6.172l.1.047c2.541 1.268 3.348 1.706 3.656 1.886 22.951 12.417 39.941 17.467 51.41 19.364-5.018-10.484-14.6-25.4-32.92-43.979-.26-.248-.9-.9-2.832-2.991a.638.638 0 0 1-.066-.08 69.2 69.2 0 0 1-12.541-21.043l-1.08-3.06a.439.439 0 0 1-.035-.1c-6.344-19.624-3.408-40.967 7.66-55.7a46.753 46.753 0 0 1 13.518-12.161A47.293 47.293 0 0 1 145.323.482a56.993 56.993 0 0 1 27.8 12.426 66.435 66.435 0 0 1 12.693 13.728 75.781 75.781 0 0 1 8.467 16.531c7.058 20.049 4.478 42.221-6.883 57.341a48.9 48.9 0 0 1-6.51 7.091 45.112 45.112 0 0 1-4.176 3.328l16.455 38.166 125.06 22.04c.451.065.906.131 1.361.194a39.744 39.744 0 0 1 8.705 1.957c10.935 4.161 17.211 14.049 20.543 21.606a49.546 49.546 0 0 1 3.3 9.71l1.657 7.562a3.841 3.841 0 0 1-4.228 4.637l-136.215-17.1 20 48.164h-48.379l-26.133-55.168-39.8-4.988a46.71 46.71 0 0 1-6.9 12.994c-10.838 14.43-30.105 23.193-50.291 22.874-23.186-.369-44.266-11.931-55.008-30.171a48.353 48.353 0 0 1-6.633-28.96Zm158.3-78.616a17.348 17.348 0 0 0 4.137-3.959c4.971-6.613 5.3-16.15 3.965-22.867a38.192 38.192 0 0 0-14.193-23.081c-6.6-4.9-14.105-6.282-20.062-3.705a.046.046 0 0 0-.018 0 16.034 16.034 0 0 0-6.475 5.151c-3.762 5.014-5.443 12.98-4.381 20.792 1.406 10.337 7 19.907 14.961 25.6 5.634 4.029 14.786 6.985 22.071 2.067ZM31.059 170.644a19.4 19.4 0 0 0 4.525 10.171c5.666 6.9 15.287 11.293 25.742 11.752 8.484.373 19.736-2.146 25.877-10.317.221-.294.428-.592.631-.895 4.033-6.01 3.418-13.96-1.559-20.264-4.887-6.2-13-10.489-22.26-11.778l-1.068-.136c-8.68-.958-20.5.884-27.666 8.941-.334.372-.646.762-.947 1.158a16.121 16.121 0 0 0-3.275 11.368Z"/></svg>