<svg xmlns="http://www.w3.org/2000/svg" viewBox="0 0 247 247"><circle cx="67.449" cy="161.17" r="122.5" fill="#FFF" transform="rotate(-22.359)"/><path fill="#000" d="m135.28 14.781-.686 4.098 1.323.224.334-1.998 4.164.705-2.274 13.455-2.332-.392-.166 1.01 7.75 1.312.178-1.008-2.312-.392 2.273-13.455 4.135.695-.342 2 1.322.225.696-4.096-1.323-.227-.117.676-11.408-1.93.117-.675-1.332-.227zm-17.826.334v1.03h1.852l-.03 14.061-1.851-.01v1.03l6.84.02v-1.03h-1.833l.02-6.154h.666l3.647 5.742c.833 1.294 1.067 1.441 2.507 1.451l3.098.01-.02-1.049h-1c-.49 0-.783-.225-1.341-1.078l-3.451-5.33c2.293-.706 3.42-2.117 3.43-4.313 0-1.293-.383-2.342-1.186-3.156-.873-.882-2.048-1.205-4.145-1.205l-7.203-.02zm-11.604.941-1.469.254-3.539 16.445-1.488.254.176 1.01 4.978-.863-.176-1.01-1.922.334.883-4.164 5.84-1.02 2.166 3.635-1.686.295.176 1.01 5.871-1.02-.166-1.01-1.01.176-8.634-14.326zm16.602.44h1.54c1.734.01 2.734 1.128 2.724 3.088 0 1.93-1.157 3.263-2.832 3.263l-1.442-.01.01-6.341zm30.889 2.137-.371.96 1.91.745-5.086 13.113-1.91-.746-.373.96 5.262 2.04.373-.952-1.91-.744 3.732-9.623 1.295 12.936 9.28-9.074-3.813 9.828-1.91-.744-.374.95 6.762 2.626.373-.96-1.91-.745 5.086-13.102 1.9.725.373-.951-4.508-1.745-8.859 8.743-1.295-12.672-4.027-1.569zm-60.406 1.253a6.168 6.168 0 0 0-2.057.334l-7.017 2.332.324.971 1.764-.578 4.43 13.348-1.766.578.324.98 6.723-2.224-.344-.99-1.969.656-4.322-13.023 1.392-.46c1.676-.55 2.91.302 3.625 2.478.686 2.058.188 3.49-1.39 4.01a2.3 2.3 0 0 1-.647.136l.371 1.137c.637-.088.903-.148 1.295-.276 2.715-.891 4.243-3.713 3.41-6.242-.654-1.999-2.202-3.128-4.146-3.166zm12.074.422 3.332 5.616-4.725.824 1.393-6.44zm-27.195 4.098-1.166.607.305.608-8.938 4.605.469.912 1.646-.853 6.44 12.506-1.647.842.471.912 10.328-5.322-1.508-2.891-1.168.598.834 1.607-4.703 2.43-2.763-5.36 3.468-1.785.784 1.52 1.166-.627-2.206-4.274-1.166.63.766 1.468-3.47 1.793-2.635-5.125 4.517-2.322.803 1.568 1.146-.598-1.773-3.449zm99.146 4.45-.549.86 1.567 1-7.565 11.849-1.568-1-.55.863 9.802 6.252 1.724-2.725-1.107-.705-.97 1.52-4.46-2.852 3.244-5.078 3.293 2.098-.922 1.441 1.127.686 2.588-4.057-1.127-.686-.902 1.4-3.283-2.107 3.098-4.859 4.28 2.732-.948 1.481 1.097.695 2.086-3.273-1.117-.705-.362.578-8.476-5.408zM62.98 35.43c-1.559.084-3.127.623-4.52 1.645l-6.134 4.508.607.824 1.498-1.098 8.31 11.31c.393.156.784.303 1.176.45l4.069-2.988c1.93-1.42 2.938-2.97 3.3-5.066.373-2.284-.135-4.51-1.468-6.323-1.672-2.272-4.24-3.4-6.838-3.261zm-1.106 2.276c1.86.144 3.841 1.228 5.17 3.035 2.274 3.077 2.126 6.79-.363 8.613l-1.598 1.176-7.937-10.799 1.676-1.224c.863-.636 1.936-.888 3.052-.801zm128.99.34-.685.754 1.295 1.187-.266 1.45-8.633 9.466-1.5-1.361-.695.754 4.076 3.714.686-.765-1.42-1.303 7.182-7.879-1.538 12.514c1.49-.382 3.076-.813 4.801-1.293l.412-.117 6.145-6.742 1.52 1.38.695-.753-4.057-3.715-.695.764 1.42 1.304-6.889 7.555 1.734-13.64-3.588-3.274zm-141.49 11.22c-1.097 3.244 1.256 7.557 4.069 8.135-2.49.255-4.618 1.548-5.608 2.96 1.872 2.175 5.626 4.439 8.723 4.497-1.43.96-3.166 2.989-3.754 4.125 2.676 1.421 6.94 2.618 10.223 2.393-1.382 1.107-2.577 2.507-3.351 3.791 2.224 1.01 6.536 2.48 10.652 2.793-1.52.745-3.676 3.332-4.793 4.92 2.312 1.039 7.32 1.657 10.428 1.97-2.225 1.177-4.549 3.509-5.832 5.616 2.254 1.078 6.488 2.283 9.947 2.176-1.705 1.636-2.832 3.626-3.479 5.547 2.617.539 5.38.548 8.565.117-1.94 2.45-2.714 5.693-2.988 8.015 2.597-.078 6.046-.666 8.476-2.127-.529 1.99-.41 4.666.442 6.567 1.019-.226 2.204-.656 3.488-1.352-.167-3.694-.334-7.468-.441-10.574-1.745-.892-3.272-1.93-4.909-3.42-5.252-4.792-6.497-9.83-4.949-15.61.921-3.44 2.332-5.176 1.852-8.772-.275-2.058-1.735-3.714-3.186-5.106-3.518-3.38-7.681-5.47-13.836-7.537-3.802-1.274-14.858-4.713-19.738-9.123zm74.322 1.764c-13.984 0-27.038 3.97-38.11 10.83 2.87 2.235 4.576 4.586 4.988 7.036.362 2.146.617 4.732-.627 8.515-1.313 4.008-2.04 8.124.92 12.31 2.94 4.164 6.772 5.958 9.937 6.566a145.354 145.354 0 0 1 13.328-1.686c.598-1.94 2.373-3.626 4.137-4.998 2.577-2 2.008-3.753 1.39-5.115-.47-1.059-1.391-1.931-2.714-2.617-1.157-.598-5.399-1.04-5.291 1.675-.686-.98-1.256-2.312-.844-4.007.568-2.362 4.44-2.97 5.4-2.9-.744-.628-.285-1.648 1.41-2.118 2.059-.568 4.01-.656 5.891-.607 3.88.098 4.487 1.048 6.457 2.793 2.372 2.107 5.51 2.842 6.744 1.568-.882 2.019-3.704 3.097-5.517 2.783.882 2.793 1.194 5.224 1.508 8.155.147 1.332.422 3.575.785 5.408 5.203.43 10.418 1.147 14.965 2.02 1.891-.55 3.841-1.658 5.595-3.686 1.666-1.921 3.194-4.36 2.567-10.494-.177-1.725-1.04-6.145-.922-8.233.284-4.713 3.783-7.792 9.281-10.29-11.71-8.135-25.93-12.907-41.277-12.907zm83.79 1.793-3.293 2.52.814 1.068 1.607-1.224 2.557 3.351-10.838 8.281-.559-.736c-.313.177-.627.324-.941.461l4.018 5.262.814-.617-1.422-1.862 10.84-8.28 2.547 3.331-1.607 1.234.824 1.069 3.293-2.518-.824-1.078-.54.412-7.015-9.193.539-.412-.814-1.069zm-7.791 2.393c-4.88 4.42-12.68 5.596-20.873 8.31-6.174 2.039-10.006 3.223-15.523 7.633-1.578 1.255-3.077 3.099-2.91 6.274.186 3.528.763 5.045.85 9.974.07 3.509-1.144 6.342-2.614 8.008-1.559 1.764-3.588 3.301-5.4 4.252a812.198 812.198 0 0 1-.413 9.506c1.284.696 2.93 1.353 3.95 1.578.852-1.891.97-4.577.44-6.566 2.431 1.46 5.88 2.048 8.477 2.127-.274-2.323-1.048-5.566-2.988-8.016 3.185.431 5.948.412 8.565-.117-.647-1.92-1.774-3.92-3.479-5.547 3.46.108 7.703-1.088 9.957-2.176-1.284-2.107-3.607-4.44-5.832-5.615 3.107-.314 8.252-.912 10.564-1.951-1.117-1.588-3.419-4.195-4.928-4.95 4.116-.303 8.428-1.773 10.652-2.792-.784-1.284-1.98-2.684-3.351-3.791 3.851-.255 7.545-.972 10.22-2.393-.587-1.137-2.332-3.174-3.753-4.125 8.242-2.293 8.379-6.419 8.389-9.623zm-169.19 11.74-.647 1.146.637.362c-.784.617-1.284 1.206-1.754 2.039-1.46 2.597-.872 5.194 1.47 6.508.941.52 1.94.725 2.862.539.95-.186 1.313-.324 3.803-1.666 2.39-1.264 3.41-1.5 4.37-.961 1.108.627 1.363 2.019.618 3.342-.588 1.038-1.275 1.607-2.578 2.136l-1.569-.882-.656 1.175 3.832 2.157.656-1.176-.763-.422c1.127-.647 1.882-1.4 2.578-2.635 1.401-2.49.684-5.214-1.737-6.576-.833-.47-1.645-.676-2.527-.637-.784.04-1.5.226-2.117.52-.304.137-1.039.538-2.225 1.156-2.45 1.303-3.253 1.5-4.105 1.02-1-.56-1.303-1.854-.686-2.962.441-.793.979-1.244 2.057-1.812l1.47.822.647-1.146-3.637-2.047zm15.848 2.057c-.892 0-1.598.705-1.598 1.597s.706 1.598 1.598 1.598c.891 0 1.597-.706 1.597-1.598 0-.882-.706-1.588-1.597-1.597zm169.99 6.455a8.693 8.693 0 0 0-3.245.738c-4.272 1.872-6.242 6.626-4.439 10.742 1.803 4.106 6.645 5.909 10.918 4.037 4.273-1.872 6.204-6.634 4.4-10.75-1.352-3.087-4.398-4.863-7.634-4.768zm-95.717 1.076c-1.687-.026-2.336.51-3.762.318.715.54 1.136.608 1.38.559.02.127.256.304.315.353a.9.9 0 0 1 .285.412 41.974 41.974 0 0 1 1.979-.775c.803-.284 1.9-.607 1.9-.607-.86-.182-1.535-.252-2.097-.26zm97.68 2.031c2.043.033 3.784.822 4.396 2.219.98 2.264-1.137 5.565-4.508 7.035-3.4 1.49-7.27.815-8.26-1.44-.97-2.234 1.147-5.537 4.547-7.027a9.247 9.247 0 0 1 3.825-.787zm-196.26 5.961-1.618 5.43 1.01.302.578-1.94 8.703 2.599c2.862.852 4.029 2.988 3.196 5.79a4.507 4.507 0 0 1-1.02 1.813c-.99 1.01-2.195 1.108-4.556.402l-8.723-2.597.53-1.754-.981-.293-1.96 6.545.98.295.528-1.774 9.457 2.813c3.234.96 6.047-.883 7.174-4.666a8.578 8.578 0 0 0 .285-3.606c-.343-2.273-1.725-3.685-4.37-4.469L22.457 86.8l.587-1.959-1-.304zm14.957 1.84a1.634 1.634 0 0 0-.63 3.138 1.627 1.627 0 0 0 2.137-.87c.343-.843-.05-1.804-.873-2.137a1.621 1.621 0 0 0-.635-.131zm190.58 5.334-.99.256.46 1.783-13.63 3.459-.452-1.793-1 .254 1.637 6.44.97-.257-.402-1.578 6.252-1.586.961 3.782-1.656.421.353 1.274 4.655-1.186-.344-1.273-1.606.412-.96-3.783 5.585-1.422 1.244 4.92-1.705.431.325 1.254 3.761-.95-.322-1.284-.656.178-2.48-9.752zm-103.9 4.234c-8.566 0-19.471 1.224-27.703 3.096.196 5.39.518 12.22.89 19.002 7.762-1.647 18.012-2.861 26.813-2.861 8.8 0 19.061 1.215 26.812 2.86.373-6.78.697-13.611.893-19.001-8.222-1.872-19.14-3.096-27.705-3.096zm.029 2.135.392 1.441 1.471-.078-1.236.813.53 1.402-1.157-.941-1.147.941.53-1.402-1.235-.813 1.471.078.38-1.441zm-6.987.217.471 1.42 1.469-.166-1.186.892.618 1.362-1.206-.872-1.087 1.008.441-1.42-1.293-.746 1.478-.01.295-1.468zm13.984.01.293 1.459 1.481.021-1.283.734.44 1.43-1.087-1.018-1.207.881.608-1.37-1.186-.893 1.47.166.472-1.41zm-20.943.587.55 1.391 1.45-.234-1.136.95.685 1.323-1.254-.803-1.039 1.069.373-1.451-1.324-.676 1.48-.088.216-1.48zm27.881 0 .227 1.48 1.469.089-1.322.676.382 1.45-1.048-1.068-1.247.813.688-1.332-1.147-.951 1.46.244.539-1.4zm-34.789.922.598 1.362 1.451-.305-1.097 1 .734 1.305-1.283-.766-.98 1.117.302-1.459-1.352-.619 1.471-.156.156-1.479zm41.72.01.156 1.479 1.47.158-1.353.617.305 1.459-.99-1.117-1.284.756.744-1.295-1.097-1 1.441.304.607-1.36zm40.403 1.822c4.205 2.46 5.655 5.124 6.272 8.182-3.361.755-7.849-.353-10.299-2.273 2.41 2.107 3.92 5.41 4.027 8.82-3.469.176-6.663-1.45-9.015-3.803 1.509 1.676 3.42 5.939 2.969 8.957-2.891-.304-6.3-2.195-8.143-4.459 1.529 3.39 2.262 6.126 2.086 9.164-2.881-.539-5.056-1.353-7.633-3.802 1.245 3.087 1.694 6.194 1.42 8.752-3.322-1.176-5.527-2.49-7.398-5.625.99 2.753 1.647 6.379.95 8.486-2.812-.843-4.664-2.53-6.124-5.4 1.44 3.047 1.263 6.585.773 8.427-1.176-.235-2.714-1.047-3.537-1.949-.04.549-.07 1.088-.11 1.607-.136 2.058-.548 3.988-1.214 5.762.225.265.775.912.805.941 1.48 1.588 3.498 3.096 5.095 3.606-.686.098-1.637.695-2.588.793 1.059 1.196 3.205 1.462 4.538 2.824-1.04.118-1.283.872-2.528.735 2.391 1.842 4.576 1.911 5.801 2.058.49.059 2.098.206 3.117.049 1.44-.225 2.93.499 3.518.832.882.52.832 1.734.666 2.352-.108.372-.263.813-.93 1.156-.382.108-.618.137-.246-.147.353-.254.667-1.802-.137-2.4a3.775 3.775 0 0 0-2.38-.746c-1.079.049-2.736.149-3.53.07-.735-.078-1.185.891-1.293 1.293-.264.96-.557 2.157-1.95 1.559-1.704-.98-4.146-.903-6.939-2.02.402.863.225 1.598.657 2.559-2.49-.608-3.117-1.872-5.489-2.705.392.872.286 1.538.825 2.351-2-.352-3.862-2.145-6.645-2.89-.088.03-.166.048-.254.078-1.01.304-1.93.599-2.773.853 1.97 2.235 3.595 4.967 4.35 8.28 0 0-1.382.04-3.44-.676.588 1.803.951 3.745.98 5.822 0 0-1.559-.284-3.695-1.607.186 1.96.119 3.998-.283 6.095 0 0-1.803-.736-3.93-2.912a22.126 22.126 0 0 1-1.627 6.116s-1.637-1.116-3.322-3.723a23.645 23.645 0 0 1-3.008 5.928s-1.795-1.882-3.01-5.684c-1.627 2.43-3.164 3.478-3.164 3.478a22.31 22.31 0 0 1-1.627-6.115c-2.126 2.166-3.93 2.912-3.93 2.912a21.194 21.194 0 0 1-.294-6.105c-2.137 1.323-3.694 1.607-3.694 1.607.04-2.068.4-4.009.988-5.822-2.058.715-3.439.676-3.44.676.775-3.381 2.99-6.85 4.47-8.408-.725-.226-1.51-.47-2.352-.725-.088-.03-.168-.049-.256-.078-2.783.745-4.643 2.538-6.642 2.89.529-.823.42-1.489.812-2.351-2.371.833-2.999 2.097-5.478 2.705.421-.96.254-1.696.656-2.559-2.303 1.127-5.468 1.911-6.87 2.205-1.538.324-1.636-1.978-2.146-2.488-.225-.225-1.459-.324-1.978-.236-.765.127-2.264.068-3.381.039-1.117-.02-1.883.315-2.47.756-.814.598-.432 2.204-.079 2.469.382.284.148.254-.234.146-.667-.343-.824-.784-.932-1.156-.167-.618-.226-1.832.666-2.352.578-.333 2.07-1.06 3.51-.834 1.02.157 2.625.01 3.115-.049.49-.049 4.097-.714 6.479-2.556-1.245.137-1.5-.607-2.54-.735 1.333-1.352 3.48-1.618 4.538-2.824-.951-.108-1.783-.86-2.47-.969 2.098-1.176 3.5-1.851 4.98-3.439.019-.03.567-.647.792-.912-.676-1.774-1.087-3.714-1.224-5.781-.03-.5-.069-1.02-.108-1.549-.52.568-1.578 1.146-3.302 1.764-.804-1.95-.412-5.606.607-8.418-1.46 2.871-3.117 4.743-5.93 5.586-.686-2.107-.282-5.792.707-8.545-1.872 3.126-3.87 4.712-7.193 5.879-.275-2.558-.01-5.92 1.215-9.016-2.568 2.46-4.754 3.264-7.625 3.803-.187-3.038.559-5.774 2.088-9.164-1.843 2.263-5.674 3.813-8.565 4.117.216-2.627 2.057-6.223 3.135-8.34-2.725 1.96-5.624 3.351-8.76 3.527.392-2.979 1.734-6.213 4.027-8.82-2.695 2-6.83 3.087-9.937 2.666.754-3.273 2.764-6.467 5.488-8.172-1.578.304-4.44.96-7.723.656a72.285 72.285 0 0 0-3.027 20.451c-1.646-1.293-2.783-1.617-3.91-2.734.216 1.539.411 2.372.588 4.283.304 3.42 1.596 5.38 3.742 6.615.108.98.226 1.94.373 2.91-1.587-1.019-3.724-1.656-6.547-1.617 1.715 5.577 4.167 5.989 7.45 6.518.107.51.224 1.02.351 1.52-1.744-.451-3.841-.462-6.232.195 1.646 2.558 3.94 4.115 7.595 4.664.01.02.01.039.02.059-2.254-.187-4.685.146-6.625 1.136 2.773 2.391 5.497 3.294 8.094 3.03.127.343.265.676.412 1.019-2.058.549-3.862 1.616-4.881 2.606 2.166.686 4.382 1.05 6.39.834.02.049.05.097.069.146-1.176.902-2.205 2.351-2.832 4.635 1.538-.392 3.115-.499 4.693-.95.314.579.647 1.157.98 1.735-.832 1.578-1.116 3.566-.626 5.771 1.323-.303 2.42-.823 3.322-1.49.314.46.628.913.951 1.364-.333 2.528.255 5.076 1.764 6.761a17.42 17.42 0 0 0 1.508-1.98c3.263-4.988 1.294-8.575 1.363-11.81.03-.068.049-.126.078-.204.265 3.851 3.615 7.653-.314 12.299a4.934 4.934 0 0 0-.215.254c13.289 15.425 32.947 25.197 54.908 25.197 31.173 0 57.742-19.69 67.963-47.305l3.293-1.432-.246 1.432 4.744-4.106-6.145 1.264 1.303.676-2.537 1.039c.196-.554.36-1.122.54-1.682l-2.894 2.533.247-1.44-18.21 9.114c-.029-.049-.048-.097-.087-.156a1.218 1.218 0 0 0-.303-.334c.147-.118.391-.314.705-.559l17.531-8.779-1.293-.668 4.723-1.01c.09-.298.197-.59.285-.89l3.605-1.99-.117 1.45 4.352-4.517-5.998 1.822 1.353.559-2.883 1.588c.16-.589.284-1.195.43-1.791l-3.162 3.486.078-1.46-11.652 7.614c-1.411.706-2.793 1.403-3.998 2.01.784-.617 1.646-1.294 2.518-2.01l12.682-8.29-1.364-.51 5.108-1.715c.126-.544.275-1.077.39-1.627l2.745-1.744-.118 1.451 4.264-4.508-5.988 1.842 1.351.549-2.095 1.332c.235-1.225.43-2.449.607-3.694l3.293-2.753.078 1.459 3.703-5.057-5.703 2.617 1.412.373-2.627 2.195c.187-1.509.324-3.04.412-4.578l3.243-3.586.275 1.432 2.988-5.508-5.3 3.352 1.449.176-2.586 2.773a72.422 72.422 0 0 0-2.97-23.656c-3.284.304-6.566-.745-8.143-1.049zm9.32 38.21c-.067.292-.137.583-.208.874l1.05-1.158-.841.283zm-1.236 4.644c-.132.436-.277.866-.417 1.299l1.83-1.602-1.412.303zM120.5 103.256l.43 1.43 1.47-.127-1.214.863.578 1.371-1.176-.902-1.117.98.48-1.41-1.265-.775 1.48.02.335-1.45zm6.733.01.332 1.449 1.48-.03-1.263.776.478 1.42-1.117-.98-1.186.902.579-1.381-1.206-.863 1.471.127.432-1.42zm-13.396.361.498 1.412 1.47-.195-1.175.91.646 1.353-1.224-.843-1.069 1.029.412-1.432-1.304-.714 1.48-.05.266-1.47zm20.059.03.266 1.47 1.48.049-1.305.715.412 1.441-1.068-1.049-1.225.854.637-1.354-1.166-.92 1.47.205.499-1.412zm-26.703.667.558 1.381 1.46-.254-1.128.96.698 1.323-1.256-.795-1.02 1.079.344-1.45-1.332-.658 1.479-.107.197-1.479zm33.357.04.197 1.488 1.469.109-1.332.656.344 1.45-1.02-1.088-1.263.794.714-1.324-1.136-.959 1.459.264.568-1.39zm-39.982.958.617 1.364 1.441-.315-1.087 1.01.744 1.293-1.283-.744-.98 1.117.292-1.46-1.361-.608 1.48-.166.137-1.49zm46.637.06.119 1.49 1.469.187-1.361.588.273 1.468-.961-1.136-1.303.734.766-1.293-1.068-1.02 1.43.334.636-1.351zm-23.264 3.83.39 1.442 1.471-.078-1.244.822.54 1.403-1.157-.951-1.147.95.53-1.402-1.237-.822 1.471.078.383-1.441zm-6.713.188.459 1.42 1.47-.156-1.195.883.608 1.371-1.196-.883-1.097 1.01.451-1.43-1.285-.736 1.48-.01.305-1.469zm13.455.03.293 1.469 1.48.019-1.293.736.45 1.43-1.098-1.02-1.205.874.617-1.362-1.185-.892 1.47.166.471-1.42zm-20.139.51.53 1.4 1.458-.225-1.146.94.666 1.334-1.235-.824-1.048 1.058.382-1.44-1.322-.687 1.479-.078.236-1.479zm26.812.058.234 1.479 1.471.08-1.324.685.383 1.44-1.04-1.059-1.253.814.685-1.332-1.146-.941 1.46.225.53-1.39zm-33.486.793.598 1.363 1.44-.285-1.108.99.736 1.303-1.275-.764-.998 1.098.322-1.46-1.352-.618 1.469-.147.168-1.48zm40.16.078.156 1.48 1.48.157-1.353.617.315 1.461-1-1.107-1.274.754.735-1.303-1.098-.99 1.441.295.598-1.364zm-86.621 8.36c1.44 4.35.45 8.86-2.393 11.467a8.788 8.788 0 0 0-.714-3.735c.51-2.215 1.548-5.027 2.293-6.3-1.137.99-2.264 3.32-2.793 5.32a8.348 8.348 0 0 0-.952-1.342c.951-2.725 3.07-4.803 4.559-5.41zm138.02.765-2.51 5.752-.392-1.412-14.943 18.924c-.824.911-1.638 1.813-2.442 2.666l-.03-.02c1.06-1.597 2.187-3.312 3.245-4.92l13.533-17.147-1.459-.051 4.998-3.791zm-12.172 3.106-1.273 6.144-.678-1.293-13.17 26.656a1.398 1.398 0 0 0-.383-.324c-.078-.04-.166-.098-.273-.147l13.102-26.539-1.442.256 4.117-4.754zm-133.98.363c3.636 2.499 4.419 4.989 5.242 8.184l.09-.032a1.246 1.246 0 0 1 1.479.98 1.26 1.26 0 0 1-2.47.5 1.254 1.254 0 0 1 .755-1.41c-1.176-2.498-3.273-5.89-5.096-8.222zm87.199 2.146c-1.254 0-2.332.647-3.479 1.332-1.225.735-2.626 1.579-4.341 1.579-1.755 0-3.028-.53-4.057-1.108v6.518c.235.137.46.273.686.41 1.038.637 1.94 1.195 3.37 1.195.883 0 1.765-.529 2.794-1.146 1.382-.823 2.94-1.754 5.027-1.754 1.98 0 3.293.804 4.45 1.51 1.038.646 1.93 1.195 3.37 1.195 1.363 0 2.097-.597 3.018-1.342.637-.51 1.364-1.108 2.334-1.46.137-2.167.273-4.479.42-6.88a10.36 10.36 0 0 0-.852.647c-1.107.892-2.49 2.01-4.92 2.01-2.283 0-3.763-.902-4.949-1.637-.97-.598-1.744-1.068-2.87-1.068zm58.721.176-2.93 5.547-.285-1.431-20.46 22.373-2.128 1.675c.177-.352.363-.735.569-1.156l21.422-23.44-1.45-.157 5.262-3.41zm-133.05 2.166c1.852 8.33-2.254 9.007-4.44 12.113-2.38-4.263-.225-10.075 4.44-12.113zm123.22.166-2.02 5.94-.51-1.373-11.495 17.426c-.04.049-.088.097-.127.146.823-1.666 1.764-3.567 2.724-5.517l8.233-12.484-1.461.078 4.656-4.215zm-124.65 1.842c-2.087 1.284-3.549 7.527-2.99 9.87 1.078-4.029 1.638-6.832 2.99-9.87zm134.92.51-3.361 5.303-.176-1.452-12.447 11.525c-1.274 1.02-2.587 2.048-3.842 3.037 1.03-1.136 2.127-2.341 3.254-3.585l12.486-11.574-1.432-.274 5.518-2.98zm19.648 3.53-1.088 5.575 1 .196.393-2.04 4.625 4.215-5.91 2.371.353-1.773-1.01-.195-1.303 6.703 1.01.195.293-1.51 8.115-3.341 6.616 1.294-.354 1.803 1.01.195 1.312-6.712-1.029-.176-.351 1.822-7.233-1.42-5.783-5.283.334-1.725-1-.195zm-167.49.028c3.606.383 5.772 2.558 7.271 4.586.47 0 .893.342.971.823a.973.973 0 0 1-.812 1.136 1.002 1.002 0 0 1-1.147-.812.983.983 0 0 1 .725-1.117c-2.058-1.853-5.028-3.675-7.008-4.616zm-15.924.793-1 .246.441 1.803-13.662 3.342-.439-1.803-1 .244 1.627 6.635 1-.246-.441-1.773 6.232-1.518 1.88 7.711-6.232 1.52-.431-1.784-.998.244 1.627 6.635.988-.234-.44-1.803 13.66-3.342.442 1.803 1-.246-1.617-6.644-1 .246.431 1.773-6.027 1.47-1.883-7.702 6.028-1.471.431 1.775 1-.246-1.617-6.635zm33.094 0c4.184 8.703-.587 10.172-1.469 13.494-.588-3.116.028-8.133.44-10.73-1.323 1.764-1.684 4.224-1.528 6.606 0 .03.01.049.02.078.03.118.02.236.01.354.098 1.058.294 2.106.568 3.046a9.479 9.479 0 0 1-1.107-2.205 1.27 1.27 0 0 1-.393.159 1.159 1.159 0 0 1-.451-2.274c.117-.02.236-.022.353-.012-.323-2.793.529-5.977 3.557-8.515zm129.68.746-3.773 5.008-.059-1.46-21.049 16.61c.568.108 1.078.314 1.225.55.362.577.264.861-.069 1.85-.323.951-.558 1.284-1.185 1.362-.177.02-.501.06-.873-.088.186.128.324.236.412.49.088.255.245.706-.53 1.588-.695.784-1.343 1.068-1.882.754-.304-.176-.402-.372-.55-.529.08.206.169.443.208.678.127.784-.47 1.077-1.225 1.342-1.43.51-2.127.284-2.46-.215-.716-1.088-.313-2.48.167-2.715-.117.421-.107.88-.029 1.39.069.422.263 1.108 1.037 1.04.421-.04 1.186-.216 1.647-.51.333-.216.344-.774.177-1.244-.078-.235-.176-.578-.46-.823.47.128.744.382 1.117.686.362.304.92.372 1.244.04.401-.432.655-.746.793-1.04.362-.755-.608-1.343-1.166-1.656.99.039 1.147.422 1.95.304.795-.117 1.03-1.393 1.04-1.814.01-.304-.364-.617-.824-.734-.353-.089-.755-.089-1.059-.079.04-.205.059-.45.04-.695.038 0 .07-.012.099-.012l.498-.39 21.207-16.758-1.41-.383 5.742-2.547zm-123.22 1.362c-.245 2.41.069 4.537.02 6.605 1.362-2.156 3.743-3.607 5.752-4.195-.275 8.594-4.205 9.252-5.94 11.447.284-2.646 1.648-6.175 4.03-9.193-3.244 2.156-4.293 5.252-4.382 8.378a7.868 7.868 0 0 1-.49-1.93 11.42 11.42 0 0 1-1.549 2.245c-.627-3.93.344-8.192.873-10.23-1.705 1.715-2.273 5.772-1.587 9.025.303.196.538.518.617.91a1.43 1.43 0 1 1-1.686-1.127c.186-.029.363-.029.53 0-1.706-3.675-.304-8.936 3.812-11.936zm-13.344 3.6a1.379 1.379 0 0 1 1.348 1.103 1.372 1.372 0 0 1-1.078 1.627 1.377 1.377 0 0 1-1.627-1.078 1.372 1.372 0 0 1 1.357-1.653zm-7.207 1.28c1.695.079 3.9.098 7.115 2.93.147-.186.363-.334.627-.383a.98.98 0 0 1 1.147.805.98.98 0 0 1-.815 1.147.991.991 0 0 1-1.047-1.432c-2.332-1.646-6.008-2.704-7.027-3.066zm85.592 4.145c-1.254 0-2.332.646-3.479 1.332-1.234.725-2.626 1.568-4.341 1.568-1.755 0-3.028-.529-4.057-1.107v7.979c.911-.931 2.214-1.766 4.066-2.334l2.274-.705c1.901-.608 4.509-1.422 8.615-2.686a14.049 14.049 0 0 0 3.281-1.469c-1.49-.284-2.577-.941-3.488-1.51-.97-.597-1.744-1.068-2.871-1.068zm-81.088.654c1.807.004 3.087.466 4.727 1.385.215.069.256.078.07.059-2.01-.696-3.99-1.078-6.813-1.293.753-.1 1.414-.152 2.016-.15zm5.691 1.424c.666.001 1.262.47 1.399 1.147a1.44 1.44 0 0 1-1.117 1.685 1.43 1.43 0 1 1-.282-2.832zm150.38 1.998-.47 1.256.638.244-4.078 10.828-.636-.244-.471 1.254 3.88 1.46.471-1.263-1.9-.717 1.488-3.949 12.77 4.813-.832 2.215.96.36 2.763-7.349-.94-.361-.824 2.195-12.77-4.812 1.48-3.93 1.891.715.471-1.254-3.89-1.461zm-147.85.79a.981.981 0 0 1 .946.818 1.008 1.008 0 0 1-.803 1.146 1.002 1.002 0 0 1-1.147-.812.835.835 0 0 1 .02-.412h-.01c-2.46.01-5.458.616-8.33 1.283 2.548-1.421 5.596-1.812 8.389-1.44a.959.959 0 0 1 .734-.568.994.994 0 0 1 .201-.016zm9.098.347c.697 0 1.317.495 1.463 1.207a1.505 1.505 0 0 1-1.178 1.754 1.492 1.492 0 0 1-1.754-1.166 1.491 1.491 0 0 1 1.47-1.795zm-6.547 1.103a1.314 1.314 0 0 1 1.268 1.043 1.285 1.285 0 0 1-1.01 1.51 1.292 1.292 0 0 1-1.5-.931h-.059c-2.067.284-5.517 1.597-7.683 2.87 2.107-2.498 5.557-3.047 7.625-2.968.03 0 .058.01.088.01a1.29 1.29 0 0 1 1.271-1.534zm3.5 1.051c.496 0 .936.35 1.04.856a1.063 1.063 0 0 1-.843 1.263 1.073 1.073 0 0 1-1.253-.841 1.077 1.077 0 0 1 1.056-1.278zm6.285.137a1.164 1.164 0 0 1 1.194.934 1.178 1.178 0 0 1-.912 1.373c-.628.127-1.244-.285-1.371-.913a1.167 1.167 0 0 1 1.09-1.394zm-3.757 2.227c.697 0 1.317.495 1.462 1.207a1.493 1.493 0 0 1-1.175 1.753 1.489 1.489 0 0 1-1.756-1.166 1.498 1.498 0 0 1 1.469-1.795zm-40.586.197a8.717 8.717 0 0 0-3.237.783c-4.243 1.93-6.145 6.714-4.283 10.801 1.862 4.087 6.733 5.811 10.977 3.88 4.243-1.93 6.104-6.723 4.242-10.81-1.396-3.065-4.463-4.795-7.699-4.654zm35.256.152c.128-.02-.009.204-.528.748-1.813 1.911-3.91 4.979-4.802 6.664.323-2.097 1.715-4.605 3.753-6.29.805-.668 1.411-1.096 1.577-1.122zm10.668.211c.262-.006.51.012.71.059-.01.254.02.499.06.695-.295-.03-.824-.069-1.255.03-.47.107-.853.4-.853.714 0 .422.206 1.707 1 1.844.793.137.969-.236 1.949-.246-.568.294-1.548.853-1.215 1.617.137.294.374.627.775 1.059.314.352.872.294 1.245 0 .372-.294.656-.549 1.136-.657-.294.236-.402.568-.49.803-.176.47-.187 1.029.137 1.244.45.314 1.215.51 1.627.559.774.088.98-.596 1.058-1.008.098-.51.118-.961.01-1.393.48.245.843 1.647.088 2.715-.353.49-1.058.695-2.459.147-.735-.285-1.333-.587-1.166-1.381.049-.235.136-.472.225-.678-.147.157-.255.343-.569.52-.548.303-1.195-.01-1.861-.803-.755-.912-.588-1.343-.48-1.598.098-.255.235-.353.431-.48-.372.137-.696.088-.873.068-.627-.088-.852-.43-1.146-1.39-.304-.99-.392-1.293-.02-1.852.22-.33 1.147-.569 1.936-.588zm85.359.2c.14-.017.33.165.423.398.147.402.44.802 1.264.861-.578.353-1.194.294-1.537.127-.333-.167-.334-.43-.324-1.027.004-.243.077-.348.174-.36zm-79.027.51c.108-.004.195.095.199.356.01.598.01.863-.332 1.03-.333.166-.932.216-1.53-.127.814-.059 1.117-.46 1.264-.861.083-.221.259-.395.399-.399zm81.787.396c.432-.006.868.134 1.113.431-.088.706-.333 2.019-1.725 2.244.196-.578.177-1.763-.205-2.459.227-.14.52-.212.817-.217zm-84.584.51c.318-.008.64.066.88.216-.372.706-.412 1.88-.197 2.46-1.391-.226-1.636-1.55-1.724-2.245.226-.281.631-.423 1.04-.432zm-11.801.284c-1.617 2.5-3.352 9.125-3.264 11.025-.784-1.97-.099-5.145.754-7.212.588-1.431 2.059-3.607 2.51-3.813zm-35.65.807c2.043.005 3.796.768 4.427 2.153 1.02 2.244-1.049 5.576-4.41 7.105-3.38 1.539-7.252.912-8.271-1.332-1.01-2.215 1.058-5.547 4.44-7.086a9.236 9.236 0 0 1 3.814-.84zm130.54.045a3.2 3.2 0 0 0 .51 1.246c.215.304.508.5.724.676a2.164 2.164 0 0 1-1.354.432c-.45-.02-.468-.09-.439-.256.108-.745.392-1.804.559-2.098zm-81.535.51c.176.294.46 1.343.548 2.098.03.166.01.236-.431.255a2.22 2.22 0 0 1-1.352-.431c.216-.186.519-.372.725-.676.274-.392.431-.805.51-1.246zm2.949.304c5.9 4.44 9.24 10.604 10.104 15.562-.745-.538-2.136-1.108-2.989-.94-.764-5.234-3.498-9.467-7.79-12.907.176-.794.44-1.342.675-1.715zm74.92.971c-.01.02-.03.03-.049.04 0 0-.049.028-.137.087-1.705 1.108-8.644 5.39-8.644 5.39l-.969-.187-2.854 1.942-3.056 1.9-.176-.951-1.637-.598 7.252-3.44 1.157.364 9.113-4.547zm.402.735-2.166 2.36-7.625 5.372-.871-.03-4.93 4.253-.205-1.293-1.715-.354 6.114-3.81.697-.432 1.186.244-.01-.02 9.525-6.29zm.744.421c-.03.363 0 .726.088 1.069l-3.644 4.29-.922.198-4.803 6.31-.254-1.421-1.431.068-.069.03.02-.02-.274.012 5.791-5.793.108-.108 1.226-.097 4.164-4.538zm.834 2.4c.196.187.421.315.686.403l-3.108 6.447.413 1.166-3.518 7.213-.656-1.763-1.795.549 3.715-7.116 1.146-.38-.02-.01 3.137-6.508zm43.168 1.52-3.254 6.006.893.49.89-1.627 12.358 6.694-.881 1.637.9.49 3.264-6.008-.9-.498-.874 1.605-12.367-6.693.871-1.605-.9-.49zm-163.12 2.989-.824.607 1.207 1.656-11.379 8.262-1.205-1.656-.832.598 3.312 4.566.832-.608-1.205-1.656 8.35-6.066-5.92 11.564 12.721-2.588-8.535 6.193-1.205-1.656-.834.6 4.263 5.869.823-.608-1.205-1.666 11.377-8.261 1.207 1.666.832-.608-2.842-3.91-12.182 2.549 5.781-11.359-2.537-3.488zm158.97 8.07a3.938 3.938 0 0 0-.836.035c-1.234.186-2.185.93-3.44 2.615l-4.292 5.783.814.608 1.106-1.49 11.29 8.379-1.107 1.49.823.607 4.076-5.488-.822-.607-1.088 1.468-4.94-3.673.393-.53 6.79.48c1.53.108 1.795-.01 2.657-1.165l1.852-2.49-.832-.598-.598.805c-.294.392-.637.498-1.666.439l-6.342-.39c.804-2.264.334-4.01-1.43-5.323-.779-.58-1.58-.9-2.408-.955zm-1.705 2.863c.7-.062 1.466.194 2.25.778 1.549 1.156 1.941 2.872.942 4.224l-.862 1.156-5.097-3.783.912-1.234c.52-.696 1.155-1.078 1.855-1.14zm-8.068 7.246-4.186 3.81.707.776 1.498-1.373 6.125 6.713c2 2.195 1.912 4.636-.254 6.606-.539.5-1.185.843-1.812 1.029-1.362.353-2.442-.177-4.108-2l-6.144-6.732 1.353-1.235-.697-.754-5.047 4.606.688.754 1.37-1.254 6.645 7.29c2.274 2.49 5.635 2.373 8.555-.302a8.498 8.498 0 0 0 2.107-2.941c.873-2.117.411-4.036-1.45-6.075l-6.184-6.783 1.51-1.38-.676-.755zm-135.38.274-.698.754 1.364 1.256-9.526 10.338-1.363-1.254-.695.754 8.545 7.869 2.175-2.41-.968-.893-1.227 1.334-3.89-3.588 4.087-4.428 2.872 2.645-1.157 1.265.99.871 3.262-3.537-.978-.873-1.127 1.225-2.871-2.645 3.9-4.234 3.732 3.44-1.185 1.294.951.871 2.635-2.851-.969-.893-.46.51-7.4-6.82zm11.602 9.879-.578.851 1.539 1.04-7.85 11.671-1.539-1.039-.578.854 9.564 6.427 1.825-2.705-1.088-.734-1.01 1.5-4.313-2.9 7.616-11.32 1.52 1.02.567-.852-5.675-3.813zm108.84 2.224-1.147.696.53.873c-1.53.215-2.578.596-3.93 1.42-4.204 2.538-5.468 7.507-2.979 11.623 2.519 4.155 7.458 5.222 11.857 2.546 1.598-.96 2.558-1.86 3.94-3.585l-1.705-2.784-1.166.705.96 1.588c-.607 1.206-1.214 1.893-2.263 2.52-2.881 1.754-6.704.469-8.762-2.912-2.097-3.46-1.549-7.103 1.352-8.867 1.107-.677 1.922-.854 3.617-.737l.813 1.344 1.146-.697-2.264-3.733zm-92.02 7.32-12.191 11.585-1.373-.63-.42.932 4.596 2.098.42-.941-1.774-.803 3.078-2.942 5.399 2.461-.264 4.223-1.559-.705-.422.932 5.42 2.468.422-.93-.931-.431.95-16.699-1.35-.617zm77.674.628-1.227.48.256.637-9.37 3.676.374.949 1.725-.686 5.134 13.092-1.724.678.373.95 10.809-4.243-1.166-3.02-1.225.48.666 1.687-4.94 1.931-2.204-5.605 3.636-1.432.627 1.588 1.215-.51-1.754-4.478-1.226.51.609 1.548-3.637 1.43-2.107-5.36 4.734-1.853.637 1.637 1.205-.471-1.42-3.615zm-79.42 3.027-.42 6.517-4.352-1.99 4.772-4.527zm9.869.588-.235 1 1.706.412.47 1.39-2.99 12.457-1.969-.47-.236 1 5.371 1.283.234-1-1.87-.451 2.478-10.377 5.478 13.61 1.666.403 3.547-14.936 2 .48.246-1-5.361-1.283-.246 1 1.883.452-2.381 9.945-5.067-12.78-4.724-1.136zm54.703 1.705-1.283.285.156.715c-.98-.177-1.755-.167-2.686.039-2.9.637-4.459 2.803-3.88 5.43.235 1.048.745 1.931 1.5 2.49.774.588 1.117.754 3.773 1.724 2.528.941 3.39 1.547 3.625 2.625.274 1.245-.608 2.363-2.088 2.686-1.166.255-2.039.117-3.303-.5L143 226.4l-1.315.285.941 4.291 1.313-.283-.195-.844c1.234.402 2.294.472 3.675.168 2.803-.607 4.36-2.951 3.762-5.666-.206-.93-.588-1.665-1.205-2.312a5.558 5.558 0 0 0-1.793-1.235c-.304-.127-1.087-.402-2.342-.882-2.607-.95-3.292-1.43-3.498-2.381-.255-1.127.51-2.214 1.754-2.489.882-.196 1.568-.089 2.715.332l.361 1.647 1.285-.283-.892-4.078zm-36.367 2.383-.04 1.029 1.852.068-.5 14.053-1.851-.068-.04 1.03 7.565.273h.02c2.39.088 4.146-.51 5.734-1.92 1.715-1.549 2.695-3.617 2.773-5.862.177-4.517-3.292-8.163-7.898-8.33l-7.615-.273zm4.95 1.548 2.065.079c2.862.098 5.194 3.262 5.067 6.85-.137 3.83-2.558 6.654-5.635 6.536l-1.978-.07.48-13.395z"/><path fill="#000" d="M123.71 36.949c-19.688 0-37.846 6.586-52.379 17.68.686.245 1.38.499 2.076.773.833.324 1.638.648 2.422.971a82.029 82.029 0 0 1 47.881-15.348c19.943 0 38.24 7.096 52.488 18.895 1.607-.46 3.176-.871 4.773-1.283-15.249-13.494-35.3-21.688-57.262-21.688zM50.515 77.402c-8.389 13.318-13.238 29.087-13.238 45.982 0 47.735 38.698 86.434 86.434 86.434 47.735 0 86.436-38.698 86.436-86.434 0-16.062-4.391-31.115-12.025-44.002-1.372.47-2.743.853-4.076 1.137 7.624 12.485 12.025 27.166 12.025 42.865 0 45.48-36.868 82.357-82.36 82.357-45.48 0-82.356-36.876-82.356-82.357 0-16.385 4.791-31.664 13.043-44.492a26.114 26.114 0 0 1-3.881-1.49z"/><path fill="#000" d="M123.7.896c-67.649 0-122.5 54.84-122.5 122.5 0 67.658 54.85 122.5 122.5 122.5 67.658 0 122.5-54.84 122.5-122.5 0-67.658-54.84-122.5-122.5-122.5zm0 237.41c-63.464 0-114.91-51.45-114.91-114.91 0-63.464 51.449-114.9 114.91-114.9 63.454 0 114.9 51.449 114.9 114.9.01 63.464-51.44 114.91-114.9 114.91z"/><path fill="#000" d="M122.79 142.96H99.574c.343.715.735 1.382 1.186 2.019 1.676 2.342 4.057 4.086 7.075 5.007a1021.16 1021.16 0 0 1 8.624 2.686l2.274.705c1.862.578 3.155 1.411 4.067 2.333v-12.75z"/><path fill="#000" d="M122.79 116.95c-8.075.069-18.014 1.185-25.824 2.871.333 6.086.677 12.024 1.02 16.758.186 2.558.558 3.803 1.165 5.39l1.157-2.136.922-.88.863.91 1.556-1.215.903-1.196 1.597-2.705 2.313-1.224 1.705-1.803 1.117-1.785 2.108-.489 1.41-1.558 2.373 2.127 2.115.92.932 2.441 1.441.715c.382.911.755 1.077 1.127 1.303V116.95zm1.793 0v6.969c.235.137.46.273.686.41 1.038.637 1.94 1.197 3.37 1.197.883 0 1.765-.529 2.794-1.146 1.381-.823 2.94-1.766 5.027-1.766 1.98 0 3.293.814 4.45 1.52 1.038.637 1.93 1.185 3.37 1.185 1.372 0 2.106-.597 3.028-1.342.764-.617 1.667-1.352 2.95-1.636.05-.833.098-1.677.147-2.52-7.81-1.676-17.747-2.793-25.822-2.87zm11.887 18.68c-1.254 0-2.332.646-3.478 1.332-1.225.735-2.627 1.568-4.342 1.568-1.764.02-3.038-.51-4.067-1.088v6.791c.235.138.46.275.686.413 1.039.646 1.94 1.195 3.371 1.195.882 0 1.764-.53 2.793-1.147 1.382-.823 2.94-1.763 5.027-1.763 1.98 0 3.293.812 4.45 1.517 1.038.637 1.93 1.188 3.37 1.188 1.108 0 1.805-.393 2.53-.942 1.49-2.205 2.35-4.94 2.566-8.125l.03-.4a2.726 2.726 0 0 0-.196.156c-1.107.892-2.49 2.018-4.92 2.018-2.283 0-3.763-.9-4.949-1.635-.97-.608-1.744-1.078-2.871-1.078z"/></svg>